<?xml version="1.0" encoding="utf-8"?>
<!-- Generator: Adobe Illustrator 24.0.2, SVG Export Plug-In . SVG Version: 6.00 Build 0)  -->
<svg version="1.1" id="Layer_1" xmlns="http://www.w3.org/2000/svg" xmlns:xlink="http://www.w3.org/1999/xlink" x="0px" y="0px"
	 viewBox="0 0 638.2 268.4" style="enable-background:new 0 0 638.2 268.4;" xml:space="preserve">
<style type="text/css">
	.st0{clip-path:url(#SVGID_2_);}
	.st1{clip-path:url(#SVGID_2_);fill:#444294;}
	.st2{clip-path:url(#SVGID_2_);fill:#E73331;}
	.st3{clip-path:url(#SVGID_2_);fill:#7BBF7A;}
</style>
<g>
	<defs>
		<rect id="SVGID_1_" x="-101.1" y="-94.4" width="841.9" height="458.1"/>
	</defs>
	<clipPath id="SVGID_2_">
		<use xlink:href="#SVGID_1_"  style="overflow:visible;"/>
	</clipPath>
	<path class="st0" d="M388.4,77.3h9.8c3.9,0,7,1.1,9,3.2c2.1,2.2,3.1,5,3.1,8.6v14.3c0,7-3.7,10.5-11.1,10.5h-10.9V77.3z
		 M403.8,83.6c-1.2-1.1-2.9-1.6-5-1.6h-5.6v27.6h5.3c2.1,0,3.9-0.4,5.2-1.1c1.3-0.7,2-2.2,2-4.5V88.7
		C405.6,86.4,405,84.7,403.8,83.6"/>
	<polygon class="st0" points="421.1,82 417.8,81.8 417.8,77.3 425.9,77.3 425.9,114 421.1,114 	"/>
	<path class="st0" d="M450.1,112.9c-1.5,1-3.4,1.6-5.7,1.6c-2,0-3.8-0.4-5.4-1.1c-1.7-0.7-3-1.9-4.1-3.5c-1-1.6-1.5-3.5-1.5-5.9
		V87.7c0-2.4,0.4-4.4,1.2-5.9c0.8-1.5,1.9-2.7,3.4-3.6c1.5-0.9,3.4-1.3,5.7-1.3c2.7,0,5.2,0.6,7.4,1.7l-1.4,4.1
		c-1.8-0.7-3.5-1-5.1-1c-1.9,0-3.4,0.4-4.6,1.1c-1.2,0.8-1.8,2.2-1.8,4.4v17c0,1.9,0.6,3.3,1.7,4.2c1.1,0.9,2.6,1.3,4.6,1.3
		c1.7,0,3.1-0.5,4.2-1.4c1.1-0.9,1.6-2.3,1.6-4.1v-1.4H447l-1.6-4.6h9.4V114h-4.3L450.1,112.9z"/>
	<polygon class="st0" points="464.7,82 461.4,81.8 461.4,77.3 469.5,77.3 469.5,114 464.7,114 	"/>
	<polygon class="st0" points="481.6,82.1 473.6,82.1 473.6,77.3 494.6,77.3 494.6,82.1 486.3,82.1 486.3,114 481.6,114 	"/>
	<path class="st0" d="M509.2,103.3h-9.6l-2.8,10.7h-5.3l9.7-36.6h6.2l10.2,36.6H512L509.2,103.3z M500.7,98.3h7.3l-3.8-13.1
		L500.7,98.3z"/>
	<polygon class="st0" points="522.2,77.3 527,77.3 527,109.6 541.1,109.6 541.1,114 522.2,114 	"/>
	<polygon class="st0" points="390.9,144.8 387.6,144.7 387.6,140.2 395.7,140.2 395.7,176.8 390.9,176.8 	"/>
	<polygon class="st0" points="408.7,149.8 408.7,176.8 403.9,176.8 403.9,140.2 408.7,140.2 424.8,167.1 424.8,140.2 429.7,140.2 
		429.7,176.8 424.8,176.8 	"/>
	<polygon class="st0" points="442.7,149.8 442.7,176.8 437.9,176.8 437.9,140.2 442.7,140.2 458.9,167.1 458.9,140.2 463.7,140.2 
		463.7,176.8 458.9,176.8 	"/>
	<path class="st0" d="M488.4,174.9c-2.1,1.7-4.7,2.5-7.7,2.5c-1.9,0-3.7-0.3-5.3-1c-1.7-0.7-3-1.8-4.1-3.3c-1.1-1.5-1.6-3.5-1.6-5.9
		v-16.9c0-3.6,1-6.3,3-8.2c2-1.8,4.7-2.8,8.1-2.8c3.5,0,6.1,1,8,2.9c1.9,2,2.9,4.6,2.9,8.1v16.8
		C491.6,170.6,490.6,173.2,488.4,174.9 M485.4,146.1c-1-1.2-2.6-1.8-4.8-1.8c-2.2,0-3.8,0.6-4.8,1.8c-1,1.2-1.4,2.9-1.4,5.2v15.1
		c0,2,0.5,3.5,1.6,4.6c1.1,1.1,2.6,1.6,4.6,1.6c1.9,0,3.4-0.5,4.5-1.6c1.1-1.1,1.7-2.6,1.7-4.6v-15
		C486.9,149.1,486.4,147.3,485.4,146.1"/>
	<polygon class="st0" points="497.6,140.2 502.9,140.2 510.1,168.2 517.1,140.2 522.6,140.2 513,176.8 507.2,176.8 	"/>
	<path class="st0" d="M536.7,166.1h-9.6l-2.8,10.7H519l9.7-36.6h6.2l10.2,36.6h-5.5L536.7,166.1z M528.2,161.1h7.3l-3.8-13.1
		L528.2,161.1z"/>
	<polygon class="st0" points="549.7,144.9 541.7,144.9 541.7,140.2 562.8,140.2 562.8,144.9 554.5,144.9 554.5,176.8 549.7,176.8 	
		"/>
	<polygon class="st0" points="569.4,144.8 566.1,144.7 566.1,140.2 574.2,140.2 574.2,176.8 569.4,176.8 	"/>
	<path class="st0" d="M600.3,174.9c-2.1,1.7-4.7,2.5-7.7,2.5c-1.9,0-3.7-0.3-5.3-1c-1.7-0.7-3-1.8-4.1-3.3c-1.1-1.5-1.6-3.5-1.6-5.9
		v-16.9c0-3.6,1-6.3,3-8.2c2-1.8,4.7-2.8,8.1-2.8c3.5,0,6.1,1,8,2.9c1.9,2,2.9,4.6,2.9,8.1v16.8
		C603.6,170.6,602.5,173.2,600.3,174.9 M597.3,146.1c-1-1.2-2.6-1.8-4.8-1.8c-2.2,0-3.8,0.6-4.8,1.8c-1,1.2-1.4,2.9-1.4,5.2v15.1
		c0,2,0.6,3.5,1.6,4.6c1.1,1.1,2.6,1.6,4.6,1.6c1.9,0,3.4-0.5,4.5-1.6c1.1-1.1,1.7-2.6,1.7-4.6v-15
		C598.8,149.1,598.3,147.3,597.3,146.1"/>
	<polygon class="st0" points="615.9,149.8 615.9,176.8 611.1,176.8 611.1,140.2 615.9,140.2 632,167.1 632,140.2 636.8,140.2 
		636.8,176.8 632,176.8 	"/>
	<polygon class="st0" points="388.4,203 405.9,203 405.9,207.7 393.2,207.7 393.2,218 401.1,218 399.4,222.6 393.2,222.6 
		393.2,239.6 388.4,239.6 	"/>
	<polygon class="st0" points="411.9,203 429.4,203 429.4,207.7 416.7,207.7 416.7,218 424.8,218 423.4,222.6 416.7,222.6 
		416.7,235.3 429.3,235.3 429.3,239.6 411.9,239.6 	"/>
	<path class="st0" d="M441.4,233.9c1.3,1.1,3,1.7,5,1.7c2.3,0,4.1-0.5,5.4-1.6c1.3-1,1.9-2.4,1.9-4c0-1.5-0.4-2.8-1.2-3.8
		c-0.8-1-1.8-1.9-2.9-2.5c-1.2-0.6-2.7-1.3-4.8-2.1c-2.2-0.8-3.9-1.6-5.2-2.3c-1.3-0.7-2.4-1.7-3.3-2.9c-0.9-1.2-1.4-2.8-1.4-4.7
		c0-1.5,0.4-3,1.3-4.4c0.9-1.4,2.2-2.5,4-3.4c1.8-0.9,4-1.3,6.5-1.3c1.7,0,3.1,0.1,4.2,0.4c1.1,0.2,2.3,0.6,3.4,1.2l-1.5,4.5
		c-2.1-0.8-4.1-1.3-6.1-1.3c-2.2,0-3.8,0.4-5,1.2c-1.2,0.8-1.8,1.8-1.8,3.2c0,0.9,0.3,1.6,0.9,2.3s1.4,1.2,2.3,1.7
		c0.9,0.5,2.2,1.1,4,1.8c2.4,1,4.4,1.9,5.9,2.8c1.6,0.9,2.9,2.1,4,3.6c1.1,1.5,1.7,3.4,1.7,5.7c0,3.1-1,5.7-3.1,7.7
		c-2.1,2-5.2,3-9.4,3c-2.6,0-4.8-0.5-6.6-1.4c-1.8-1-3.2-2.2-4.2-3.7c-1-1.5-1.5-3.1-1.5-4.7l5.1-0.6
		C439.4,231.4,440.1,232.7,441.4,233.9"/>
	<polygon class="st0" points="468.1,207.7 460.1,207.7 460.1,203 481.2,203 481.2,207.7 472.9,207.7 472.9,239.6 468.1,239.6 	"/>
	<polygon class="st0" points="487.8,207.6 484.5,207.5 484.5,203 492.6,203 492.6,239.6 487.8,239.6 	"/>
	<polygon class="st0" points="500.7,203 506.1,203 513.3,231 520.3,203 525.8,203 516.2,239.6 510.4,239.6 	"/>
	<path class="st0" d="M539.9,228.9h-9.6l-2.8,10.7h-5.3l9.7-36.6h6.2l10.2,36.6h-5.5L539.9,228.9z M531.4,223.9h7.3l-3.8-13.1
		L531.4,223.9z"/>
	<polygon class="st0" points="552.9,203 557.7,203 557.7,235.3 571.8,235.3 571.8,239.6 552.9,239.6 	"/>
	<path class="st1" d="M148.3,34.6c-3.7-3.7-8.6-5.5-14.5-5.5c-5.7,0-10.4,1.9-14.2,5.6c-2,2-3.4,4.2-4.4,6.7c0,0,0,0,0,0
		C114.4,45.2,114,49,114,53v111.8c0,9.9-3.5,18.2-10.5,25.1c-7,6.9-15.4,10.3-25.3,10.3s-18.2-3.4-25.1-10.3
		c-6.9-6.9-10.4-15.3-10.4-25.1c0-9.9,3.4-18.3,10.4-25.3c6.9-7,15.3-10.5,25.1-10.5c5.9,0,10.7-1.8,14.5-5.5
		c3.7-3.7,5.6-8.4,5.6-14.4s-1.9-10.7-5.6-14.5c-3.7-3.7-8.6-5.6-14.5-5.6c-21.3,0-39.2,7.3-53.7,21.9C10,125.6,2.8,143.5,2.8,164.8
		c0,21.1,7.3,38.9,21.9,53.5c14.6,14.6,32.4,21.9,53.5,21.9s39-7.3,53.7-21.9c14.7-14.6,22-32.4,22-53.5V48.9
		C153.9,43,152,38.2,148.3,34.6"/>
	<path class="st2" d="M212.1,109.5v110.9c0,5.9-1.9,10.7-5.6,14.3c-3.7,3.7-8.6,5.5-14.5,5.5c-5.9,0-10.7-1.8-14.4-5.5
		c-1.8-1.8-3.1-3.9-4-6.2c-0.9-3.9-1.4-8-1.4-12.2V109.5c0-5.9,1.8-10.7,5.5-14.4c3.7-3.6,8.4-5.5,14.4-5.5
		C205.4,89.7,212.1,96.3,212.1,109.5"/>
	<path class="st2" d="M339.3,175.1h-68.9v45.2c0,5.9-1.9,10.7-5.6,14.3c-3.7,3.6-8.6,5.5-14.5,5.5c-5.9,0-10.7-1.8-14.3-5.5
		c-3.6-3.6-5.5-8.4-5.5-14.3V92.9c0-18.1,6.1-33.3,18.3-45.5c12.2-12.2,27.4-18.3,45.5-18.3c17.9,0,33,6.2,45.2,18.5
		c12.2,12.3,18.3,27.5,18.3,45.4V95c0,5.9-1.8,10.7-5.5,14.5c-3.6,3.7-8.4,5.6-14.3,5.6c-5.7,0-10.5-1.9-14.3-5.8
		c-3.8-3.8-5.8-8.6-5.8-14.3v-2.1c0-6.7-2.3-12.4-6.8-17c-4.5-4.6-10.2-6.9-16.9-6.9c-6.7,0-12.4,2.3-17,6.9
		c-4.6,4.6-6.9,10.3-6.9,17v42.3h68.9c5.9,0,10.7,1.9,14.3,5.6c3.6,3.7,5.5,8.6,5.5,14.5c0,5.9-1.8,10.7-5.5,14.3
		C350,173.3,345.2,175.1,339.3,175.1"/>
	<path class="st1" d="M212.4,53c0,11-8.9,20-20,20c-11,0-20-8.9-20-20c0-6.2-4.2-11.4-9.2-11.4c-5,0-9.2,5.2-9.2,11.4v102.1
		c0,0.4,0,0.8,0,1.2c-0.6,10.5-9.3,18.8-19.9,18.8c-11,0-20-8.9-20-20V53c0-4,0.4-7.8,1.3-11.5c0,0,0,0,0,0
		c5-22.8,24.6-39.8,48-39.8C190.3,1.6,212.4,24.7,212.4,53"/>
	<path class="st2" d="M270.6,114.1v102.1c0,28.3-22.1,51.4-49.2,51.4c-23.1,0-42.5-16.7-47.8-39.1c-0.9-3.9-1.4-8-1.4-12.2
		c0-11,8.9-20,20-20c10.6,0,19.3,8.3,19.9,18.8c0,0.4,0,0.8,0,1.2c0,6.2,4.2,11.4,9.3,11.4c5,0,9.2-5.2,9.2-11.4V114.1
		c0-11,8.9-20,20-20C261.7,94.2,270.6,103.1,270.6,114.1"/>
	<path class="st3" d="M203.4,41.9c3.1,3.1,4.6,6.7,4.6,11c0,4.3-1.5,7.9-4.6,11c-3.1,3.1-6.7,4.6-11,4.6c-4.3,0-7.9-1.5-11-4.6
		c-3.1-3.1-4.6-6.7-4.6-11c0-4.3,1.5-7.9,4.6-11c3.1-3.1,6.7-4.6,11-4.6C196.7,37.3,200.4,38.8,203.4,41.9"/>
</g>
</svg>
